# xmcd
#
# Track frame offsets: 
#        150
#        26759
#        46312
#        73412
#        94763
#        121500
#        147147
#        174637
#        193747
#        211087
#
# Disc length: 3128 seconds
#
# Revision: 2
# Processed by: cddbd v1.5.2PL0 Copyright (c) Steve Scherf et al.
# Submitted via: ExactAudioCopy v0.95b4
#
DISCID=8c0c360a
DTITLE=Concerto Moon - After The Double Cross [CD 1)
DYEAR=2004
DGENRE=Power/Neoclassical Metal
TTITLE0=30 Min. In The Darkness
TTITLE1=Waiting For A Miracle
TTITLE2=Find The Key
TTITLE3=Found In This City
TTITLE4=The Gladiator
TTITLE5=Fall Down
TTITLE6=Where Are You
TTITLE7=Puppet In The Mirror
TTITLE8=Tell Everything
TTITLE9=Concerto Moon
EXTD=YEAR: 2004
EXTT0=
EXTT1=
EXTT2=
EXTT3=
EXTT4=
EXTT5=
EXTT6=
EXTT7=
EXTT8=
EXTT9=
PLAYORDER=
